<?xml version="1.0" encoding="UTF-8"?>
<svg id="Layer_1" data-name="Layer 1" xmlns="http://www.w3.org/2000/svg" version="1.1" viewBox="0 0 500 500">
  <defs>
    <style>
      .cls-1 {
        fill: #231f20;
        stroke-width: 0px;
      }
    </style>
  </defs>
  <g>
    <path class="cls-1" d="M59.96,241.53h-22.11l-3.27,6.84c-.45.95-.68,1.7-.68,2.25,0,1.05.79,1.77,2.38,2.17v1.14h-16.09v-1.14c.95-.19,1.68-.52,2.17-1,.5-.47,1.07-1.4,1.71-2.78l17.89-37.39c.57-1.19.86-2.14.86-2.85,0-1.09-.69-1.88-2.07-2.35v-1.14h17.25v1.14c-1.4.4-2.1,1.1-2.1,2.1,0,.69.23,1.47.68,2.35l18.54,37.5c.78,1.59,1.47,2.68,2.07,3.26.59.58,1.39.97,2.39,1.16v1.14h-17.91v-1.14c1.57-.26,2.36-1,2.36-2.21,0-.5-.24-1.24-.71-2.21l-3.34-6.84ZM56.9,234.86l-7.89-17.33-8.02,17.33h15.91Z"/>
    <path class="cls-1" d="M128.97,209.4l-5.81,11.46-1-.57c.02-.24.04-.43.04-.57,0-.81-.69-1.68-2.07-2.6-4.23-2.95-9.2-4.42-14.9-4.42-2.52,0-4.74.31-6.67.92-1.4.48-2.54,1.19-3.4,2.14-.87.95-1.3,1.98-1.3,3.1,0,1.83,1.1,3.07,3.31,3.74,1.14.33,3.59.69,7.34,1.07l5.6.57c3.33.36,6.02.84,8.07,1.46,2.06.62,3.88,1.48,5.47,2.6,1.62,1.16,2.89,2.7,3.83,4.59.94,1.9,1.41,3.93,1.41,6.09,0,3.42-1.11,6.46-3.32,9.12-2,2.42-5.1,4.21-9.3,5.38-3.14.88-6.5,1.32-10.09,1.32-6.44,0-12.8-1.54-19.07-4.63-1.33-.62-2.13-.93-2.39-.93-.31,0-.8.26-1.46.78l-1.03-.53,5.28-11.94,1.03.5v.46c0,1.07.51,2.06,1.53,2.96,1.54,1.38,3.93,2.57,7.16,3.56,3.23,1,6.3,1.5,9.2,1.5,3.16,0,5.86-.53,8.09-1.6,1.24-.59,2.22-1.38,2.96-2.37.74-.98,1.1-2.01,1.1-3.08,0-1.61-.87-2.76-2.6-3.45-1.21-.47-3.66-.91-7.34-1.32l-5.49-.57c-3.68-.38-6.29-.74-7.81-1.09-1.52-.34-3.04-.9-4.56-1.66-2.16-1.07-3.86-2.67-5.1-4.82-1.12-1.93-1.68-4.14-1.68-6.63,0-4.11,1.41-7.51,4.24-10.2,3.71-3.54,9.27-5.32,16.68-5.32,3.11,0,6.01.32,8.7.95,2.68.63,6.04,1.8,10.05,3.49,1.38.55,2.22.82,2.53.82.5,0,1.08-.27,1.75-.82l1,.54Z"/>
    <path class="cls-1" d="M167.43,234.08v16.15c0,.71.17,1.27.52,1.66.34.39.93.7,1.76.91v1.14h-15.18v-1.14c.86-.24,1.45-.55,1.78-.93.33-.38.5-.93.5-1.64v-41.21c0-.74-.17-1.29-.5-1.68-.33-.38-.93-.69-1.78-.93v-1.14h30.44c3.71,0,6.65.21,8.82.64,2.17.43,4.07,1.18,5.69,2.25,1.88,1.24,3.28,2.91,4.21,5.03.88,2.04,1.32,4.23,1.32,6.56,0,7.94-4.41,12.58-13.22,13.94l9.45,13.44c1.66,2.35,2.88,3.87,3.65,4.54.77.68,1.72,1.05,2.83,1.12v1.14h-17.58v-1.14c1.21-.19,1.81-.62,1.81-1.28,0-.43-.56-1.46-1.67-3.1l-9.85-14.33h-12.99ZM167.43,226.06h16.4c2.42,0,4.13-.07,5.13-.21s1.91-.44,2.75-.89c1.81-.97,2.71-2.73,2.71-5.28s-.9-4.3-2.71-5.28c-.86-.48-1.76-.78-2.73-.91-.96-.13-2.68-.2-5.15-.2h-16.4v12.76Z"/>
    <path class="cls-1" d="M224.82,236.96v9.73h25.34c.74,0,1.3-.16,1.69-.49.39-.33.71-.92.95-1.79h1v11.8h-1c-.21-.83-.52-1.42-.93-1.76s-.97-.52-1.71-.52h-37.18v-1c.83-.21,1.42-.52,1.76-.93.34-.4.52-.97.52-1.71v-32.65c0-.74-.17-1.29-.5-1.67-.33-.38-.93-.7-1.78-.96v-1h36.07c.76,0,1.34-.17,1.73-.5.39-.33.71-.93.94-1.78h.96v11.8h-.96c-.24-.87-.55-1.46-.94-1.79-.39-.33-.97-.49-1.73-.49h-24.24v8.77h15.04c.74,0,1.3-.17,1.69-.5.39-.33.72-.93.98-1.78h.96v11.51h-.96c-.24-.84-.55-1.43-.95-1.77-.39-.34-.97-.51-1.73-.51h-15.04Z"/>
    <path class="cls-1" d="M298.21,217.61l-4.81,9.3-.86-.46c0-.78-.25-1.4-.75-1.85-1.36-1.21-3.35-2.21-5.99-2.99-2.64-.78-5.31-1.18-8.02-1.18-2.31,0-4.35.32-6.13.96-2.57.93-3.85,2.27-3.85,4.03,0,1.17.62,1.99,1.85,2.48,1.24.49,3.62.87,7.17,1.16l5.63.43c4.92.38,8.66,1.33,11.23,2.85,1.43.86,2.6,2,3.53,3.42,1.16,1.78,1.75,3.79,1.75,6.02,0,4.06-1.83,7.27-5.49,9.62-3.49,2.26-8.22,3.39-14.19,3.39s-11.82-1.27-17.43-3.81c-.38-.17-.7-.25-.96-.25-.48,0-.92.29-1.32.86l-.89-.36,4.1-9.77.89.36v.29c0,.62.24,1.14.71,1.57,1.19,1.05,3.24,1.96,6.17,2.73,2.92.77,5.81,1.16,8.66,1.16,2.52,0,4.78-.33,6.77-1,2.47-.81,3.71-2.11,3.71-3.92,0-1.45-.86-2.46-2.57-3.03-1.14-.38-3.2-.7-6.17-.96l-5.6-.46c-3.02-.24-5.32-.55-6.92-.93-1.59-.38-2.98-.94-4.17-1.68-1.52-.95-2.71-2.25-3.56-3.88s-1.28-3.43-1.28-5.38c0-4.37,1.88-7.71,5.63-10.02,3.42-2.09,7.65-3.14,12.69-3.14,2.73,0,5.28.3,7.65.91,2.36.61,5.19,1.67,8.46,3.19.97.45,1.65.68,2.03.68s.87-.26,1.46-.78l.86.46Z"/>
    <path class="cls-1" d="M346.65,217.64v21.14c0,4.82-.95,8.36-2.85,10.62-3.06,3.59-8.84,5.38-17.32,5.38-5.68,0-10.27-.87-13.76-2.6-2.52-1.26-4.24-3.05-5.17-5.38-.86-2.14-1.28-4.81-1.28-8.02v-21.14c0-.74-.17-1.29-.5-1.67-.33-.38-.93-.7-1.78-.96v-1h14.12v1c-.87.24-1.46.55-1.79.94-.33.39-.49.96-.49,1.69v19.21c0,2.23.2,3.95.59,5.13.39,1.19,1.08,2.16,2.05,2.92,1.95,1.54,4.76,2.32,8.45,2.32s6.5-.77,8.45-2.32c.95-.76,1.62-1.73,2-2.92.38-1.19.57-2.9.57-5.13v-19.21c0-.74-.16-1.29-.48-1.67-.32-.38-.92-.7-1.8-.96v-1h13.29v1c-.86.24-1.45.55-1.78.94-.33.39-.5.96-.5,1.69Z"/>
    <path class="cls-1" d="M367,246.69h22.35c.76,0,1.33-.16,1.71-.49.38-.33.7-.92.96-1.79h.96v11.8h-.96c-.24-.86-.55-1.45-.94-1.78-.39-.33-.97-.5-1.73-.5h-34.18v-1c.83-.21,1.42-.52,1.76-.93.34-.4.52-.97.52-1.71v-32.65c0-.74-.17-1.29-.5-1.67-.33-.38-.93-.7-1.78-.96v-1h14.12v1c-.86.24-1.45.55-1.78.94-.33.39-.5.96-.5,1.69v29.05Z"/>
    <path class="cls-1" d="M419.11,221.25v29.02c0,.74.17,1.3.5,1.69.33.39.93.72,1.78.98v1h-14.12v-1c.83-.21,1.42-.52,1.76-.93.34-.4.52-.97.52-1.71v-29.05h-11.76c-.76,0-1.34.17-1.73.51-.39.34-.71.93-.94,1.77h-.96v-11.8h.96c.21.83.52,1.42.91,1.76.39.34.97.52,1.73.52h33.11c.76,0,1.34-.17,1.73-.5.39-.33.71-.93.95-1.78h.96v11.8h-.96c-.24-.84-.55-1.43-.94-1.77-.39-.34-.97-.51-1.73-.51h-11.76Z"/>
    <path class="cls-1" d="M477,217.61l-4.81,9.3-.86-.46c0-.78-.25-1.4-.75-1.85-1.36-1.21-3.35-2.21-5.99-2.99-2.64-.78-5.31-1.18-8.02-1.18-2.31,0-4.35.32-6.13.96-2.57.93-3.85,2.27-3.85,4.03,0,1.17.62,1.99,1.85,2.48,1.24.49,3.62.87,7.17,1.16l5.63.43c4.92.38,8.66,1.33,11.23,2.85,1.43.86,2.6,2,3.53,3.42,1.16,1.78,1.75,3.79,1.75,6.02,0,4.06-1.83,7.27-5.49,9.62-3.49,2.26-8.22,3.39-14.19,3.39s-11.82-1.27-17.43-3.81c-.38-.17-.7-.25-.96-.25-.48,0-.92.29-1.32.86l-.89-.36,4.1-9.77.89.36v.29c0,.62.24,1.14.71,1.57,1.19,1.05,3.24,1.96,6.17,2.73,2.92.77,5.81,1.16,8.66,1.16,2.52,0,4.78-.33,6.77-1,2.47-.81,3.71-2.11,3.71-3.92,0-1.45-.86-2.46-2.57-3.03-1.14-.38-3.2-.7-6.17-.96l-5.6-.46c-3.02-.24-5.32-.55-6.92-.93-1.59-.38-2.98-.94-4.17-1.68-1.52-.95-2.71-2.25-3.56-3.88s-1.28-3.43-1.28-5.38c0-4.37,1.88-7.71,5.63-10.02,3.42-2.09,7.65-3.14,12.69-3.14,2.73,0,5.28.3,7.65.91,2.36.61,5.19,1.67,8.46,3.19.97.45,1.65.68,2.03.68s.87-.26,1.46-.78l.86.46Z"/>
  </g>
  <g>
    <path class="cls-1" d="M173.93,301.92l-5.61-11.21v10.06c0,.27.04.46.13.57s.25.2.5.27v.31h-2.64v-.31c.25-.07.41-.15.5-.26s.13-.3.13-.58v-11.03c0-.27-.04-.47-.13-.58s-.25-.2-.5-.26v-.31h3.45v.31c-.32.11-.48.25-.48.41,0,.08.11.33.32.75l4.44,8.79,4.46-8.87c.16-.31.23-.53.23-.66,0-.17-.16-.31-.48-.42v-.31h3.49v.31c-.25.07-.41.15-.5.26s-.13.3-.13.58v11.03c0,.27.04.46.13.57s.25.2.5.27v.31h-2.78v-.31c.25-.07.42-.15.5-.26.08-.11.12-.3.12-.58v-10.06l-5.66,11.21Z"/>
    <path class="cls-1" d="M199.12,298.17h-7.13l-1.17,2.53c-.11.24-.17.41-.17.51,0,.2.19.33.58.39v.31h-2.97v-.31c.27-.05.47-.14.61-.29s.32-.48.55-.98l4.88-10.54c.12-.25.18-.43.18-.52,0-.17-.16-.3-.48-.38v-.31h3.24v.31c-.32.1-.48.24-.48.41,0,.07.06.23.18.49l4.68,10.16c.35.75.57,1.19.68,1.32s.35.24.72.33v.31h-3.16v-.31c.38-.05.57-.2.57-.43,0-.1-.07-.31-.21-.61l-1.09-2.39ZM198.56,296.91l-3-6.59-3,6.59h6Z"/>
    <path class="cls-1" d="M211.57,295.92v4.84c0,.27.04.46.13.57.08.11.25.2.5.27v.31h-2.78v-.31c.25-.07.41-.15.5-.26s.13-.3.13-.58v-11.03c0-.27-.04-.47-.13-.58s-.25-.2-.5-.26v-.31h7.31c1,0,1.8.05,2.38.16s1.09.29,1.52.56c.44.27.8.65,1.07,1.12.31.54.47,1.15.47,1.83,0,1.02-.34,1.85-1.01,2.49-.67.64-1.6,1.01-2.78,1.1l3.39,5.26c.2.33.49.49.88.49v.31h-3.09v-.31c.32-.05.48-.14.48-.27,0-.06-.11-.28-.34-.63l-3.03-4.78h-5.1ZM211.57,294.65h5.4c.74,0,1.29-.03,1.67-.09s.7-.17.99-.34c.67-.39,1.01-1.04,1.01-1.96s-.35-1.58-1.04-1.97c-.31-.17-.65-.28-1.02-.34s-.96-.09-1.74-.09h-5.26v4.79Z"/>
    <path class="cls-1" d="M231.94,296.8v3.96c0,.27.04.46.13.57s.25.2.5.27v.31h-2.78v-.31c.25-.07.41-.15.5-.26s.13-.3.13-.58v-11.03c0-.27-.04-.47-.13-.58s-.25-.2-.5-.26v-.31h2.78v.31c-.25.07-.41.15-.5.26-.08.11-.13.3-.13.58v5.54l7.19-5.63c.25-.2.38-.35.38-.48,0-.14-.12-.23-.37-.27v-.31h3.52v.31c-.39.03-.77.19-1.15.48l-5.42,4.2,5.96,7.55c.14.18.28.3.4.37s.31.1.57.11v.31h-3.25v-.31c.28-.07.42-.16.42-.28,0-.08-.14-.3-.43-.67l-4.83-6.17-3,2.32Z"/>
    <path class="cls-1" d="M251.86,295.69v4.95h8.54c.27,0,.47-.04.58-.13s.2-.25.26-.5h.31v2.52h-.31c-.07-.25-.15-.41-.27-.5-.11-.08-.31-.13-.58-.13h-10.69v-.31c.25-.07.42-.15.5-.26s.12-.3.12-.58v-11.03c0-.27-.04-.47-.13-.58s-.25-.2-.5-.26v-.31h10.58c.27,0,.47-.04.58-.12s.2-.25.26-.5h.31v2.52h-.31c-.06-.25-.14-.41-.26-.5s-.31-.13-.58-.13h-8.42v4.57h5.52c.27,0,.47-.04.58-.13s.2-.25.26-.5h.31v2.52h-.31c-.06-.25-.14-.41-.26-.5s-.31-.13-.58-.13h-5.52Z"/>
    <path class="cls-1" d="M275.02,289.85v10.91c0,.27.04.46.13.57s.25.2.5.27v.31h-2.78v-.31c.25-.07.41-.15.5-.26s.13-.3.13-.58v-10.91h-4.51c-.27,0-.47.04-.58.12s-.2.25-.26.5h-.31v-2.52h.31c.06.25.14.42.26.5s.31.12.58.12h10.56c.27,0,.47-.04.58-.12s.2-.25.26-.5h.31v2.52h-.31c-.06-.25-.14-.42-.26-.5s-.31-.12-.58-.12h-4.51Z"/>
    <path class="cls-1" d="M287.98,300.76v-11.03c0-.27-.04-.47-.13-.58s-.25-.2-.5-.26v-.31h2.78v.31c-.25.07-.41.15-.5.26s-.13.3-.13.58v11.03c0,.27.04.47.12.58s.25.2.5.26v.31h-2.78v-.31c.25-.07.42-.15.5-.26s.12-.3.12-.58Z"/>
    <path class="cls-1" d="M300.1,290.27v10.49c0,.27.04.46.13.57s.25.2.5.27v.31h-2.65v-.31c.25-.07.42-.15.5-.26s.12-.3.12-.58v-11.03c0-.27-.04-.47-.13-.58s-.25-.2-.5-.26v-.31h3.83v.31c-.31.1-.46.25-.46.44,0,.13.15.37.46.73l8.04,9.39v-9.73c0-.27-.04-.47-.13-.58s-.25-.2-.5-.26v-.31h2.65v.31c-.25.06-.41.14-.5.26s-.13.31-.13.58v11.03c0,.27.04.47.13.58s.25.2.5.26v.31h-3.08v-.31c.3-.08.45-.21.45-.4,0-.14-.14-.38-.41-.7l-8.83-10.22Z"/>
    <path class="cls-1" d="M333.89,289.86l-1.5,2.38-.25-.17c.12-.19.18-.34.18-.44,0-.2-.35-.49-1.04-.86-1.34-.73-2.71-1.09-4.12-1.09-1.63,0-3.01.46-4.13,1.38-1.28,1.04-1.92,2.45-1.92,4.21s.61,3.1,1.84,4.12c1.13.94,2.57,1.42,4.32,1.42.92,0,1.8-.14,2.64-.43s1.54-.7,2.11-1.22v-2.46h-3.15c-.27,0-.47.04-.58.13s-.2.25-.26.5h-.31v-2.52h.31c.06.25.14.41.26.5s.31.13.58.13h5.24v.31c-.25.07-.41.15-.5.26s-.13.3-.13.58v1.73c0,.27.04.47.13.58s.25.2.5.26v.27c-.74.66-1.43,1.17-2.08,1.53-1.41.79-3.02,1.19-4.83,1.19-2.23,0-4.03-.6-5.4-1.81-.68-.59-1.21-1.3-1.61-2.13-.45-.94-.67-1.94-.67-2.99,0-1.5.44-2.84,1.32-4,.81-1.07,1.91-1.86,3.28-2.35.97-.34,2.01-.52,3.12-.52.98,0,1.88.12,2.71.35s1.73.62,2.7,1.16c.28.16.45.23.52.23.1,0,.26-.14.48-.41l.26.18Z"/>
  </g>
</svg>